<mxfile host="app.diagrams.net" agent="Mozilla/5.0 (Windows NT 10.0; Win64; x64) AppleWebKit/537.36 (KHTML, like Gecko) Chrome/136.0.0.0 Safari/537.36" version="27.0.3">
  <diagram name="Page-1" id="JMTBTVtpBVs8Dw7OG0da">
    <mxGraphModel dx="1213" dy="764" grid="1" gridSize="10" guides="1" tooltips="1" connect="1" arrows="1" fold="1" page="1" pageScale="1" pageWidth="827" pageHeight="1169" math="0" shadow="0">
      <root>
        <mxCell id="0" />
        <mxCell id="1" parent="0" />
        <mxCell id="w-BfjtwjmEW1W18jDqhO-6" style="edgeStyle=orthogonalEdgeStyle;rounded=0;orthogonalLoop=1;jettySize=auto;html=1;" edge="1" parent="1" source="w-BfjtwjmEW1W18jDqhO-1" target="w-BfjtwjmEW1W18jDqhO-3">
          <mxGeometry relative="1" as="geometry" />
        </mxCell>
        <mxCell id="w-BfjtwjmEW1W18jDqhO-1" value="START" style="ellipse;whiteSpace=wrap;html=1;" vertex="1" parent="1">
          <mxGeometry x="340" width="120" height="80" as="geometry" />
        </mxCell>
        <mxCell id="w-BfjtwjmEW1W18jDqhO-2" value="OUTPUT" style="ellipse;whiteSpace=wrap;html=1;" vertex="1" parent="1">
          <mxGeometry x="340" y="680" width="120" height="80" as="geometry" />
        </mxCell>
        <mxCell id="w-BfjtwjmEW1W18jDqhO-5" style="edgeStyle=orthogonalEdgeStyle;rounded=0;orthogonalLoop=1;jettySize=auto;html=1;" edge="1" parent="1" source="w-BfjtwjmEW1W18jDqhO-3" target="w-BfjtwjmEW1W18jDqhO-7">
          <mxGeometry relative="1" as="geometry" />
        </mxCell>
        <mxCell id="w-BfjtwjmEW1W18jDqhO-3" value="INPUT NILAI SISWA" style="shape=parallelogram;perimeter=parallelogramPerimeter;whiteSpace=wrap;html=1;fixedSize=1;" vertex="1" parent="1">
          <mxGeometry x="324.5" y="170" width="151" height="60" as="geometry" />
        </mxCell>
        <mxCell id="w-BfjtwjmEW1W18jDqhO-11" style="edgeStyle=orthogonalEdgeStyle;rounded=0;orthogonalLoop=1;jettySize=auto;html=1;entryX=0;entryY=0.5;entryDx=0;entryDy=0;" edge="1" parent="1" source="w-BfjtwjmEW1W18jDqhO-4" target="w-BfjtwjmEW1W18jDqhO-10">
          <mxGeometry relative="1" as="geometry" />
        </mxCell>
        <mxCell id="w-BfjtwjmEW1W18jDqhO-12" style="edgeStyle=orthogonalEdgeStyle;rounded=0;orthogonalLoop=1;jettySize=auto;html=1;exitX=0.5;exitY=1;exitDx=0;exitDy=0;" edge="1" parent="1" source="w-BfjtwjmEW1W18jDqhO-4" target="w-BfjtwjmEW1W18jDqhO-9">
          <mxGeometry relative="1" as="geometry" />
        </mxCell>
        <mxCell id="w-BfjtwjmEW1W18jDqhO-4" value="? sisa &amp;gt; 0" style="rhombus;whiteSpace=wrap;html=1;" vertex="1" parent="1">
          <mxGeometry x="350" y="390" width="100" height="80" as="geometry" />
        </mxCell>
        <mxCell id="w-BfjtwjmEW1W18jDqhO-8" style="edgeStyle=orthogonalEdgeStyle;rounded=0;orthogonalLoop=1;jettySize=auto;html=1;entryX=0.5;entryY=0;entryDx=0;entryDy=0;" edge="1" parent="1" source="w-BfjtwjmEW1W18jDqhO-7" target="w-BfjtwjmEW1W18jDqhO-4">
          <mxGeometry relative="1" as="geometry" />
        </mxCell>
        <mxCell id="w-BfjtwjmEW1W18jDqhO-7" value="nilai siswa di kurang dengan nilai kkm" style="rounded=1;whiteSpace=wrap;html=1;" vertex="1" parent="1">
          <mxGeometry x="340" y="290" width="120" height="60" as="geometry" />
        </mxCell>
        <mxCell id="w-BfjtwjmEW1W18jDqhO-13" style="edgeStyle=orthogonalEdgeStyle;rounded=0;orthogonalLoop=1;jettySize=auto;html=1;exitX=0.5;exitY=1;exitDx=0;exitDy=0;" edge="1" parent="1" source="w-BfjtwjmEW1W18jDqhO-9" target="w-BfjtwjmEW1W18jDqhO-2">
          <mxGeometry relative="1" as="geometry" />
        </mxCell>
        <mxCell id="w-BfjtwjmEW1W18jDqhO-9" value="LULUS" style="shape=parallelogram;perimeter=parallelogramPerimeter;whiteSpace=wrap;html=1;fixedSize=1;" vertex="1" parent="1">
          <mxGeometry x="340" y="540" width="120" height="60" as="geometry" />
        </mxCell>
        <mxCell id="w-BfjtwjmEW1W18jDqhO-10" value="TIDAK LULUS" style="shape=parallelogram;perimeter=parallelogramPerimeter;whiteSpace=wrap;html=1;fixedSize=1;" vertex="1" parent="1">
          <mxGeometry x="510" y="400" width="120" height="60" as="geometry" />
        </mxCell>
        <mxCell id="w-BfjtwjmEW1W18jDqhO-15" value="TIDAK" style="text;html=1;align=center;verticalAlign=middle;whiteSpace=wrap;rounded=0;" vertex="1" parent="1">
          <mxGeometry x="450" y="400" width="60" height="30" as="geometry" />
        </mxCell>
        <mxCell id="w-BfjtwjmEW1W18jDqhO-16" value="YA" style="text;html=1;align=center;verticalAlign=middle;whiteSpace=wrap;rounded=0;" vertex="1" parent="1">
          <mxGeometry x="340" y="480" width="60" height="30" as="geometry" />
        </mxCell>
        <mxCell id="w-BfjtwjmEW1W18jDqhO-19" value="" style="endArrow=classic;html=1;rounded=0;" edge="1" parent="1">
          <mxGeometry width="50" height="50" relative="1" as="geometry">
            <mxPoint x="620" y="640" as="sourcePoint" />
            <mxPoint x="400" y="640" as="targetPoint" />
          </mxGeometry>
        </mxCell>
        <mxCell id="w-BfjtwjmEW1W18jDqhO-20" value="" style="endArrow=none;html=1;rounded=0;entryX=1;entryY=0.5;entryDx=0;entryDy=0;" edge="1" parent="1">
          <mxGeometry width="50" height="50" relative="1" as="geometry">
            <mxPoint x="620" y="640" as="sourcePoint" />
            <mxPoint x="620" y="430" as="targetPoint" />
          </mxGeometry>
        </mxCell>
      </root>
    </mxGraphModel>
  </diagram>
</mxfile>
